# xmcd CD database file
#
# Track frame offsets:
#	150
#	23618
#	36442
#	50850
#	73712
#	91436
#	114552
#	132618
#
# Disc length: 2083 seconds
#
# Revision: 1
# Processed by: cddbd v1.5.2PL0 Copyright (c) Steve Scherf et al.
# Submitted via: CDex 1.70beta2
#
DISCID=75082108
DTITLE=Robert (Barcelona) - Live At The Harlem Jazz Club
DYEAR=2010
DGENRE=Blues
TTITLE0=Mystery Train
TTITLE1=Money Takin' Woman
TTITLE2=Sittin' On The Top Of The World
TTITLE3=Key To The Highway
TTITLE4=That's Alright Mama
TTITLE5=Canned Heat Blues
TTITLE6=Mobile Line
TTITLE7=Roots Woman
EXTD=YEAR: 2010
EXTT0=
EXTT1=
EXTT2=
EXTT3=
EXTT4=
EXTT5=
EXTT6=
EXTT7=
PLAYORDER=
